<svg id="ac356da0-b129-4ca5-aecc-4700531dd101" data-name="Layer 1"
  xmlns="http://www.w3.org/2000/svg" width="1129" height="663" viewBox="0 0 1129 663">
  <style type="text/css">
    .st0{fill:#25c2a0;}
  </style>
  <title>docu_tree</title>
  <!-- <g>
    <path d="M1144.93871,339.34489a91.61081,91.61081,0,0,0,7.10658-10.46092l-50.141-8.23491,54.22885.4033a91.566,91.566,0,0,0,1.74556-72.42605l-72.75449,37.74139,67.09658-49.32086a91.41255,91.41255,0,1,0-150.971,102.29805,91.45842,91.45842,0,0,0-10.42451,16.66946l65.0866,33.81447-69.40046-23.292a91.46011,91.46011,0,0,0,14.73837,85.83669,91.40575,91.40575,0,1,0,143.68892,0,91.41808,91.41808,0,0,0,0-113.02862Z" transform="translate(-35.5 -118.5)" fill="#3ecc5f" fill-rule="evenodd"/>
    <path d="M1088.60287,624.61594a30.11371,30.11371,0,0,0,3.98291-15.266c0-13.79652-8.54358-24.98081-19.08256-24.98081s-19.08256,11.18429-19.08256,24.98081a30.11411,30.11411,0,0,0,3.98291,15.266,31.248,31.248,0,0,0,0,30.53213,31.248,31.248,0,0,0,0,30.53208,31.248,31.248,0,0,0,0,30.53208,30.11408,30.11408,0,0,0-3.98291,15.266c0,13.79652,8.54353,24.98081,19.08256,24.98081s19.08256-11.18429,19.08256-24.98081a30.11368,30.11368,0,0,0-3.98291-15.266,31.248,31.248,0,0,0,0-30.53208,31.248,31.248,0,0,0,0-30.53208,31.248,31.248,0,0,0,0-30.53213Z" transform="translate(-35.5 -118.5)" fill="#3f3d56"/>
    <ellipse cx="1038.00321" cy="460.31783" rx="19.08256" ry="24.9808" fill="#3f3d56"/>
    <ellipse cx="1038.00321" cy="429.78574" rx="19.08256" ry="24.9808" fill="#3f3d56"/>
  </g> -->
  <circle cx="321" cy="321" r="321" fill="#f2f2f2"/>
  <path d="M981.6885,395.8592a91.01343,91.01343,0,0,0,19.56129,56.51431,91.40575,91.40575,0,1,0,143.68892,0C1157.18982,436.82067,981.6885,385.60008,981.6885,395.8592Z" fill="#f2f2f2" transform="translate(-35.5 -0.5)"/>
  <ellipse cx="559" cy="635.49998" rx="514" ry="27.50002" fill="#3f3d56"/>
  <ellipse cx="558" cy="627" rx="460" ry="22" opacity="0.2"/>
  <rect x="131" y="152.5" width="840" height="50" fill="#3f3d56"/>
  <path d="M166.5,727.3299A21.67009,21.67009,0,0,0,188.1701,749H984.8299A21.67009,21.67009,0,0,0,1006.5,727.3299V296h-840Z" transform="translate(-35.5 -118.5)" fill="#3f3d56"/>
  <path d="M984.8299,236H188.1701A21.67009,21.67009,0,0,0,166.5,257.6701V296h840V257.6701A21.67009,21.67009,0,0,0,984.8299,236Z" transform="translate(-35.5 -118.5)" fill="#3f3d56"/>
  <path d="M984.8299,236H188.1701A21.67009,21.67009,0,0,0,166.5,257.6701V296h840V257.6701A21.67009,21.67009,0,0,0,984.8299,236Z" transform="translate(-35.5 -118.5)" opacity="0.2"/>
  <circle cx="181" cy="147.5" r="13" fill="#3f3d56"/>
  <circle cx="217" cy="147.5" r="13" fill="#3f3d56"/>
  <circle cx="253" cy="147.5" r="13" fill="#3f3d56"/>
  <rect x="168" y="213.5" width="337" height="386" rx="5.33505" fill="#606060"/>
  <rect x="603" y="272.5" width="284" height="22" rx="5.47638" fill="#2e8555"/>
  <rect x="537" y="352.5" width="416" height="15" rx="5.47638" fill="#2e8555"/>
  <rect x="537" y="396.5" width="416" height="15" rx="5.47638" fill="#2e8555"/>
  <rect x="537" y="440.5" width="416" height="15" rx="5.47638" fill="#2e8555"/>
  <rect x="537" y="484.5" width="416" height="15" rx="5.47638" fill="#2e8555"/>
  <rect x="865" y="552.5" width="88" height="26" rx="7.02756" fill="#3ecc5f"/>
  <g id="docusaurus_keytar" transform="translate(216.271 293.733) scale(12)">
    <circle class="st0" cx="10.7" cy="10.2" r="1.3"/>
    <path class="st0" d="M15,7.8c0.5-1.9,0.3-3.4-0.6-3.9c-0.9-0.5-2.3,0.1-3.7,1.4C9.3,4,8,3.4,7.1,3.9c-0.7,0.4-1,1.5-0.8,3.1
      c0,0.3,0.1,0.6,0.2,0.8c-1.9,0.5-3.1,1.4-3.1,2.5c0,1,1.2,1.9,3.1,2.5c-0.1,0.3-0.1,0.6-0.2,0.8c-0.2,1.5,0,2.6,0.8,3.1
      c0.2,0.1,0.5,0.2,0.7,0.2c0.7,0,1.4-0.4,2.3-1.1c0.2-0.2,0.4-0.4,0.6-0.6c0.2,0.2,0.4,0.4,0.6,0.6c0.9,0.7,1.6,1.1,2.3,1.1
      c0.3,0,0.5-0.1,0.7-0.2c0.7-0.4,1-1.5,0.8-3.1c0-0.3-0.1-0.6-0.2-0.8c1.9-0.5,3.1-1.4,3.1-2.5C18.1,9.2,16.9,8.3,15,7.8z M13.7,4.3
      c0.2,0,0.3,0,0.4,0.1c0.6,0.3,0.7,1.5,0.3,3.2c-0.6-0.1-1.3-0.2-2-0.3c-0.4-0.6-0.8-1.1-1.2-1.5C12.2,4.8,13.1,4.3,13.7,4.3z
      M8.1,11.7c0.1,0.2,0.3,0.5,0.4,0.7c-0.5-0.1-0.9-0.1-1.3-0.2c0.1-0.4,0.3-0.8,0.5-1.3C7.9,11.2,8,11.5,8.1,11.7z M7.3,8.2
      C7.7,8.1,8.1,8.1,8.6,8C8.4,8.2,8.3,8.5,8.1,8.7C8,9,7.9,9.2,7.7,9.5C7.6,9.1,7.4,8.6,7.3,8.2z M8.1,10.2c0.2-0.4,0.4-0.8,0.6-1.2
      c0.2-0.4,0.5-0.8,0.7-1.1c0.4,0,0.9-0.1,1.3-0.1c0.5,0,0.9,0,1.3,0.1c0.2,0.4,0.5,0.7,0.7,1.1c0.2,0.4,0.4,0.8,0.6,1.2
      c-0.2,0.4-0.4,0.8-0.6,1.2c-0.2,0.4-0.5,0.8-0.7,1.1c-0.4,0-0.9,0.1-1.3,0.1c-0.5,0-0.9,0-1.3-0.1c-0.2-0.4-0.5-0.7-0.7-1.1
      C8.5,11,8.3,10.6,8.1,10.2z M13.3,11.7c0.1-0.3,0.3-0.5,0.4-0.8c0.2,0.4,0.3,0.8,0.5,1.3c-0.4,0.1-0.8,0.2-1.3,0.2
      C13.1,12.2,13.2,12,13.3,11.7z M13.3,8.7c-0.1-0.3-0.3-0.5-0.4-0.7c0.5,0.1,0.9,0.1,1.3,0.2c-0.1,0.4-0.3,0.8-0.5,1.3
      C13.6,9.2,13.5,9,13.3,8.7z M10.7,6.2c0.3,0.3,0.6,0.7,0.9,1c-0.3,0-0.6,0-0.9,0c-0.3,0-0.6,0-0.9,0C10.2,6.9,10.5,6.5,10.7,6.2z
      M7.4,4.4c0.1-0.1,0.3-0.1,0.4-0.1c0.6,0,1.5,0.5,2.5,1.4c-0.4,0.5-0.8,1-1.2,1.5c-0.7,0.1-1.4,0.2-2,0.3C7,7.3,7,7.1,6.9,6.8
      C6.7,5.6,6.9,4.7,7.4,4.4z M6.7,12.1C5,11.6,4,10.9,4,10.2c0-0.7,1-1.4,2.6-1.8C6.8,9,7.1,9.6,7.4,10.2C7.1,10.9,6.8,11.5,6.7,12.1
      z M9.7,15.2c-1,0.8-1.8,1.1-2.3,0.8c-0.5-0.3-0.7-1.2-0.5-2.4c0-0.3,0.1-0.5,0.2-0.8c0.6,0.1,1.3,0.2,2,0.3
      c0.4,0.6,0.8,1.1,1.2,1.5C10.1,14.9,9.9,15.1,9.7,15.2z M9.9,13.2c0.3,0,0.6,0,0.9,0c0.3,0,0.6,0,0.9,0c-0.3,0.4-0.6,0.7-0.9,1
      C10.5,13.9,10.2,13.6,9.9,13.2z M14.1,16c-0.5,0.3-1.3,0-2.3-0.8c-0.2-0.2-0.4-0.3-0.6-0.5c0.4-0.5,0.8-1,1.2-1.5
      c0.7-0.1,1.4-0.2,2-0.3c0.1,0.3,0.1,0.5,0.2,0.8C14.8,14.9,14.6,15.8,14.1,16z M14.8,12.1c-0.2-0.6-0.4-1.2-0.7-1.8
      c0.3-0.6,0.5-1.3,0.7-1.8c1.6,0.5,2.6,1.2,2.6,1.8C17.5,10.9,16.5,11.6,14.8,12.1z"/>
    <path class="st0" d="M15.8,18.1c-1.5,1-3.3,1.5-5.1,1.5c-5.2,0-9.4-4.2-9.4-9.4s4.2-9.4,9.4-9.4c1.7,0,3.4,0.5,4.9,1.4c0,0,0,0,0,0
      l0.4-0.5c0,0,0,0-0.1,0c-1.6-1-3.4-1.5-5.3-1.5c-5.5,0-10,4.5-10,10c0,5.5,4.5,10,10,10c1.9,0,3.8-0.6,5.4-1.6c0,0,0.1,0,0.1-0.1
      L15.8,18.1C15.9,18.1,15.9,18.1,15.8,18.1z"/>
  </g>
</svg>